<svg xmlns="http://www.w3.org/2000/svg" width="1451.336" height="226.223" viewBox="0 0 1451.336 226.223">
  <g id="NetMechanics-newlogo-var2" transform="translate(114.383 270.128)">
    <g id="Group_8" data-name="Group 8" transform="translate(-591.953 -270.128)">
      <g id="Group_5" data-name="Group 5" transform="translate(745 -314.033)">
        <path id="Path_33" data-name="Path 33" d="M23.725,361.662v86.454H0V323.558H28.758l50.685,87.173V323.558h23.725V448.116H74.41Z" fill="#fff"/>
        <path id="Path_34" data-name="Path 34" d="M149.719,408.574q.714,11.862,7.189,17.165t20.311,5.3q12.038,0,28.037-4.493v17.435a58.726,58.726,0,0,1-15.008,5.032,89.41,89.41,0,0,1-18.062,1.8q-22.829,0-34.78-12.4T125.453,402.1q0-23,11.863-35.768t32.893-12.76q17.792,0,27.408,9.794t9.617,27.95a85.128,85.128,0,0,1-.539,8.987,77.486,77.486,0,0,1-1.259,8.268Zm19.59-36.846q-8.807,0-13.928,5.3T149.539,392.4h35.229v-3.056Q184.768,371.729,169.309,371.728Z" fill="#fff"/>
        <path id="Path_35" data-name="Path 35" d="M282,445.779a59.6,59.6,0,0,1-21.748,3.774q-15.279,0-22.557-7.189t-7.279-22.287V375.682h-13.84V359.505l14.559-2.875,3.955-25.163H256.66v24.8h24.8v19.412h-24.8v43.137q0,5.754,2.875,8.088t9.7,2.337A87.026,87.026,0,0,0,282,428.164Z" fill="#fff"/>
        <path id="Path_36" data-name="Path 36" d="M431.9,448.116V361.842l-27.5,55.9H380.316l-27.5-55.9v86.274H329.092V323.558h29.476l33.971,70.816,34.149-70.816h28.937V448.116Z" fill="#fff"/>
        <path id="Path_37" data-name="Path 37" d="M502.176,408.574q.717,11.862,7.189,17.165t20.311,5.3q12.04,0,28.039-4.493v17.435a58.726,58.726,0,0,1-15.008,5.032,89.429,89.429,0,0,1-18.064,1.8q-22.828,0-34.778-12.4T477.912,402.1q0-23,11.861-35.768t32.893-12.76q17.794,0,27.41,9.794t9.615,27.95a85.112,85.112,0,0,1-.539,8.987,78.067,78.067,0,0,1-1.257,8.268Zm19.592-36.846q-8.809,0-13.93,5.3T502,392.4h35.229v-3.056Q537.225,371.729,521.768,371.728Z" fill="#fff"/>
        <path id="Path_38" data-name="Path 38" d="M646.143,444.161a39.868,39.868,0,0,1-11.682,4.4,65.059,65.059,0,0,1-14.2,1.528q-21.932,0-33.522-12.223t-11.594-35.228q0-22.824,12.223-35.587t33.971-12.762a52.141,52.141,0,0,1,24.264,5.752v17.434a70.656,70.656,0,0,0-19.413-3.055q-12.582,0-18.511,6.38t-5.932,20.221v2.516q0,13.662,5.842,20.04t18.062,6.381a78.173,78.173,0,0,0,20.491-3.235Z" fill="#fff"/>
        <path id="Path_39" data-name="Path 39" d="M723.787,448.116V387.9q0-7.366-3.234-10.785t-9.887-3.415q-9.885,0-19.59,6.112v68.3H664.834V315.111h26.242v49.427q15.455-10.961,32.352-10.963,12.759,0,19.681,6.919t6.92,19.681v67.941Z" fill="#fff"/>
        <path id="Path_40" data-name="Path 40" d="M827.494,448.116l-2.156-8.088a43.458,43.458,0,0,1-12.852,8,37.288,37.288,0,0,1-14.109,2.966q-13.3,0-21.3-7.549t-8-20.131a27.008,27.008,0,0,1,4.315-15.188,29.134,29.134,0,0,1,12.4-10.335,44.66,44.66,0,0,1,19.051-3.774,87.77,87.77,0,0,1,19.052,2.337v-8.987q0-8.265-3.416-11.324t-12.58-3.055q-14.742,0-32.533,5.572V361.123a65.923,65.923,0,0,1,16.715-5.482,101.737,101.737,0,0,1,20.49-2.066q18.51,0,27.051,7.459t8.537,23.455v63.627Zm-21.748-14.739A24.056,24.056,0,0,0,815,431.4a35.005,35.005,0,0,0,8.9-5.392V410.371a91.663,91.663,0,0,0-14.2-1.258q-15.639,0-15.637,12.582,0,5.572,3.055,8.627T805.746,433.377Z" fill="#fff"/>
        <path id="Path_41" data-name="Path 41" d="M931.92,448.116V387.9q0-7.366-3.234-10.785T918.8,373.7q-9.885,0-19.59,6.112v68.3H872.967V356.27h21.568l2.516,9.886q16.177-12.579,34.51-12.581,12.758,0,19.681,6.919t6.92,19.681v67.941Z" fill="#fff"/>
        <path id="Path_42" data-name="Path 42" d="M996.8,342.072q-6.832,0-10.965-3.775t-4.133-10.245q0-6.471,4.133-10.245t10.965-3.774q6.828,0,10.963,3.774t4.134,10.245q0,6.471-4.134,10.245T996.8,342.072ZM983.684,448.116V356.27h26.242v91.846Z" fill="#fff"/>
        <path id="Path_43" data-name="Path 43" d="M1102.129,444.161a39.872,39.872,0,0,1-11.684,4.4,65.025,65.025,0,0,1-14.2,1.528q-21.931,0-33.521-12.223t-11.592-35.228q0-22.824,12.222-35.587t33.969-12.762a52.143,52.143,0,0,1,24.266,5.752v17.434a70.672,70.672,0,0,0-19.412-3.055q-12.584,0-18.514,6.38t-5.93,20.221v2.516q0,13.662,5.84,20.04t18.065,6.381a78.178,78.178,0,0,0,20.49-3.235Z" fill="#fff"/>
        <path id="Path_44" data-name="Path 44" d="M1159.822,422.773a7.36,7.36,0,0,0-2.066-5.572q-2.069-1.975-8.36-4.314l-14.017-5.571q-10.967-4.314-15.818-10.605t-4.852-16a23.541,23.541,0,0,1,9.8-19.68q9.793-7.457,26.152-7.459a65.294,65.294,0,0,1,27.86,5.93V376.94a88.455,88.455,0,0,0-25.524-4.134q-7.371,0-10.785,1.8a6.046,6.046,0,0,0-3.414,5.751,6.373,6.373,0,0,0,2.066,4.943q2.065,1.887,8.717,4.583l13.66,5.571q11.145,4.5,15.909,10.425t4.761,15.458a26.245,26.245,0,0,1-10.154,21.479q-10.158,8.175-26.691,8.178-18.513,0-32.711-7.37V426.188q17.792,5.574,32.531,5.571Q1159.822,431.759,1159.822,422.773Z" fill="#fff"/>
      </g>
      <g id="Group_6" data-name="Group 6" transform="translate(468 -314.033)">
        <path id="Path_45" data-name="Path 45" d="M301.612,538.254a20.755,20.755,0,0,1-7.779,1.309q-4.544,0-6.93-2.426t-2.387-7.047V504.215h-7.239v-3.08l7.393-.693.616-11.319h3.62v11.242h12.321v3.85H288.906V529.86q0,3.158,1.347,4.466t4.505,1.309a28.442,28.442,0,0,0,6.854-.924Z" fill="#fff"/>
        <path id="Path_46" data-name="Path 46" d="M337.266,539.1V512.764q0-5-1.925-7.277t-6.161-2.272a26.567,26.567,0,0,0-15.015,4.928V539.1h-4.39V482.115h4.39v22.639a33.441,33.441,0,0,1,7.892-4.08,23.976,23.976,0,0,1,8.048-1.463q5.619,0,8.586,2.965t2.965,8.74V539.1Z" fill="#fff"/>
        <path id="Path_47" data-name="Path 47" d="M355.978,520.465q.076,8.086,3.542,11.936t10.7,3.849a31.005,31.005,0,0,0,12.707-2.7v3.621a26.11,26.11,0,0,1-13.014,3.08q-9.166,0-13.785-5.2t-4.621-15.44q0-9.7,4.659-15.054t13.053-5.352q7.007,0,10.743,4T383.7,514.69a30.263,30.263,0,0,1-.462,5.775Zm12.86-17.328q-12.168,0-12.86,13.785h23.41c.051-.719.077-1.564.077-2.541q0-5.545-2.7-8.394T368.838,503.137Z" fill="#fff"/>
        <path id="Path_48" data-name="Path 48" d="M433.292,528.936a4.764,4.764,0,0,0-1.5-3.543,14.661,14.661,0,0,0-5.044-2.772L419.739,520q-8.241-3.08-8.239-10.088a9.569,9.569,0,0,1,3.58-7.738,14.189,14.189,0,0,1,9.356-2.965,27.342,27.342,0,0,1,5.622.615,27.868,27.868,0,0,1,5.391,1.694v3.621a37.172,37.172,0,0,0-11.243-2q-4.159,0-6.315,1.656a5.788,5.788,0,0,0-2.156,4.891,5.3,5.3,0,0,0,1.5,4.043,19.327,19.327,0,0,0,5.891,3.119l6.161,2.308a14.8,14.8,0,0,1,6.276,3.967,8.757,8.757,0,0,1,1.964,5.815,10.02,10.02,0,0,1-3.812,8.277q-3.813,3.04-10.358,3.043a27.672,27.672,0,0,1-12.552-2.773v-3.62a38.06,38.06,0,0,0,12.861,2.465q4.7,0,7.161-1.886A6.511,6.511,0,0,0,433.292,528.936Z" fill="#fff"/>
        <path id="Path_49" data-name="Path 49" d="M461.862,540.256q-8.473,0-13.168-5.43T444,519.694q0-9.7,4.7-15.092t13.168-5.391q8.469,0,13.168,5.391t4.7,15.092q0,9.7-4.7,15.132T461.862,540.256Zm0-4.006q13.322,0,13.322-16.556,0-16.477-13.322-16.479T448.54,519.694Q448.54,536.252,461.862,536.25Z" fill="#fff"/>
        <path id="Path_50" data-name="Path 50" d="M492.2,539.1V504.215h-7.547v-3.08l7.547-.693v-8.856q0-5.156,2.7-7.853t7.7-2.7a22.036,22.036,0,0,1,3.813.346,17.812,17.812,0,0,1,3.349.887v3.619a31.523,31.523,0,0,0-6.623-.848q-3.463,0-5.005,1.424t-1.541,4.66v9.24h12.784v3.85H496.591V539.1Z" fill="#fff"/>
        <path id="Path_51" data-name="Path 51" d="M535.788,538.254a20.759,20.759,0,0,1-7.779,1.309q-4.543,0-6.93-2.426t-2.387-7.047V504.215h-7.239v-3.08l7.393-.693.615-11.319h3.621v11.242H535.4v3.85H523.082V529.86q0,3.158,1.347,4.466t4.505,1.309a28.443,28.443,0,0,0,6.854-.924Z" fill="#fff"/>
        <path id="Path_52" data-name="Path 52" d="M575.986,539.1l-9.626-33.807L556.811,539.1h-4.774l-13.169-38.735h4.7l10.781,33.653,9.626-33.653h5.16l9.549,33.883,11.012-33.883h4.544L580.76,539.1Z" fill="#fff"/>
        <path id="Path_53" data-name="Path 53" d="M624.5,539.1l-.384-4.467q-6.624,5.315-13.862,5.314a11.555,11.555,0,0,1-8.432-3.041,10.833,10.833,0,0,1-3.119-8.125,10.95,10.95,0,0,1,3.85-8.855q3.851-3.234,10.474-3.234a38.066,38.066,0,0,1,11.012,1.771v-6.469q0-4.7-2.234-6.738t-7.392-2.041a39.772,39.772,0,0,0-13.168,2.465v-3.621a32.444,32.444,0,0,1,6.622-2.078,35.4,35.4,0,0,1,7.239-.77q6.775,0,10.049,2.848t3.273,8.625V539.1Zm-13.629-3.156a19.107,19.107,0,0,0,6.314-1.194,35.12,35.12,0,0,0,6.854-3.351v-9.625a38.534,38.534,0,0,0-10.011-1.387q-10.784,0-10.781,8.316a7.127,7.127,0,0,0,1.924,5.391A7.932,7.932,0,0,0,610.871,535.944Z" fill="#fff"/>
        <path id="Path_54" data-name="Path 54" d="M640.287,539.1V500.365h3.85l.462,5.622a19.277,19.277,0,0,1,5.736-4.583,14.55,14.55,0,0,1,6.354-1.347,26.083,26.083,0,0,1,3.157.232v3.926q-2-.153-3.619-.152a14.357,14.357,0,0,0-6.276,1.308,16.665,16.665,0,0,0-5.275,4.235V539.1Z" fill="#fff"/>
        <path id="Path_55" data-name="Path 55" d="M668.471,520.465q.076,8.086,3.542,11.936t10.7,3.849a31.005,31.005,0,0,0,12.707-2.7v3.621a26.11,26.11,0,0,1-13.014,3.08q-9.166,0-13.785-5.2T664,519.617q0-9.7,4.66-15.054t13.052-5.352q7.007,0,10.743,4t3.735,11.475a30.181,30.181,0,0,1-.462,5.775Zm12.861-17.328q-12.169,0-12.861,13.785h23.41c.051-.719.077-1.564.077-2.541q0-5.545-2.7-8.394T681.332,503.137Z" fill="#fff"/>
        <path id="Path_56" data-name="Path 56" d="M745.786,538.254a20.758,20.758,0,0,1-7.779,1.309q-4.543,0-6.93-2.426t-2.387-7.047V504.215h-7.239v-3.08l7.393-.693.615-11.319h3.621v11.242H745.4v3.85H733.08V529.86q0,3.158,1.347,4.466t4.505,1.309a28.443,28.443,0,0,0,6.854-.924Z" fill="#fff"/>
        <path id="Path_57" data-name="Path 57" d="M755.642,520.465q.076,8.086,3.542,11.936t10.7,3.849a31.005,31.005,0,0,0,12.707-2.7v3.621a26.11,26.11,0,0,1-13.014,3.08q-9.167,0-13.785-5.2t-4.621-15.44q0-9.7,4.659-15.054t13.053-5.352q7.006,0,10.743,4t3.735,11.475a30.26,30.26,0,0,1-.462,5.775Zm12.86-17.328q-12.168,0-12.86,13.785h23.41c.051-.719.077-1.564.077-2.541q0-5.545-2.7-8.394T768.5,503.137Z" fill="#fff"/>
        <path id="Path_58" data-name="Path 58" d="M818.865,537.791a23.193,23.193,0,0,1-9.626,2.156q-8.934,0-13.553-5.121t-4.621-15.054q0-9.856,4.7-15.055t13.63-5.2a22.286,22.286,0,0,1,9.01,1.849v3.62a28.048,28.048,0,0,0-8.778-1.387q-7.317,0-10.589,3.734t-3.273,11.975v.924q0,8.012,3.311,11.822t10.4,3.81a30.393,30.393,0,0,0,9.4-1.693Z" fill="#fff"/>
        <path id="Path_59" data-name="Path 59" d="M855.289,539.1V512.764q0-5-1.925-7.277t-6.161-2.272a26.57,26.57,0,0,0-15.016,4.928V539.1H827.8V482.115h4.39v22.639a33.467,33.467,0,0,1,7.893-4.08,23.971,23.971,0,0,1,8.047-1.463q5.621,0,8.586,2.965t2.965,8.74V539.1Z" fill="#fff"/>
        <path id="Path_60" data-name="Path 60" d="M891.25,528.936a4.764,4.764,0,0,0-1.5-3.543,14.662,14.662,0,0,0-5.044-2.772L877.7,520q-8.241-3.08-8.239-10.088a9.569,9.569,0,0,1,3.58-7.738,14.189,14.189,0,0,1,9.356-2.965,27.342,27.342,0,0,1,5.622.615,27.867,27.867,0,0,1,5.391,1.694v3.621a37.171,37.171,0,0,0-11.243-2q-4.16,0-6.315,1.656a5.788,5.788,0,0,0-2.156,4.891,5.3,5.3,0,0,0,1.5,4.043,19.327,19.327,0,0,0,5.891,3.119l6.161,2.308a14.8,14.8,0,0,1,6.276,3.967,8.757,8.757,0,0,1,1.964,5.815,10.02,10.02,0,0,1-3.812,8.277q-3.813,3.04-10.358,3.043a27.672,27.672,0,0,1-12.552-2.773v-3.62a38.061,38.061,0,0,0,12.861,2.465q4.7,0,7.161-1.886A6.511,6.511,0,0,0,891.25,528.936Z" fill="#fff"/>
      </g>
      <g id="Group_7" data-name="Group 7" transform="translate(0 0)">
        <path id="Path_61" data-name="Path 61" d="M514.989,218.7a38.332,38.332,0,0,1-15.728-3.414c-12.941-5.827-21.25-17.943-21.684-31.618l-.007-.414.017-138.272c-.481-17.883,9.372-34.06,25.151-41.255a40.715,40.715,0,0,1,46.4,8.849L630.43,97.745l-17.113,17.639L532.135,30.325a17.029,17.029,0,0,0-19.711-3.667,18.272,18.272,0,0,0-10.74,17.717l.007.414L501.674,183c.279,5.752,5.548,8.567,7.171,9.3,3.82,1.721,9.774,2.376,13.962-1.443l30.484-27.785,15.9,18.831L538.7,209.687A35.048,35.048,0,0,1,514.989,218.7Z" fill="#ff6170"/>
        <path id="Path_62" data-name="Path 62" d="M599.046,39.936l.723-.769L616.59,21.222l8.109-8.658a40.723,40.723,0,0,1,46.4-8.838c15.788,7.192,25.636,23.365,25.154,41.256l.017,138.473v.215c-.448,13.669-8.746,25.78-21.693,31.613a38.3,38.3,0,0,1-15.72,3.417,35.1,35.1,0,0,1-23.724-9.017l-.4-.376L583.4,158.014l-17.423-17.425-28.89-28.876,16.7-18.051,97.431,97.343c4.167,3.65,10.02,2.988,13.791,1.288,1.618-.716,6.887-3.542,7.162-9.285l-.017-138.42v-.214a18.262,18.262,0,0,0-10.726-17.713,17.1,17.1,0,0,0-19.748,3.686l-8.109,8.659L656.5,63.033,639.385,80.674" fill="#ff6170"/>
        <path id="Path_63" data-name="Path 63" d="M609.169,61.906" fill="#ff6170"/>
        <path id="Path_64" data-name="Path 64" d="M640.16,78.008" fill="#ff6170"/>
      </g>
    </g>
  </g>
</svg>