<?xml version="1.0" encoding="UTF-8"?>
<svg xmlns="http://www.w3.org/2000/svg" width="300" height="79.4" version="1.1" viewBox="0 0 300 79.4">
  <defs>
    <style>
      .cls-1 {
        fill: #fff;
      }
    </style>
  </defs>
  <!-- Generator: Adobe Illustrator 28.7.10, SVG Export Plug-In . SVG Version: 1.2.0 Build 236)  -->
  <g>
    <g id="Layer_1">
      <g id="Layer_1-2" data-name="Layer_1">
        <g id="nmecar">
          <g>
            <path class="cls-1" d="M162,26.4c0-14.9,11.9-26.4,26.9-26.4s17,4.6,21.4,11.8l-7.6,6c-3.3-4.6-7.5-7.7-13.6-7.7-9.3,0-15.9,7.2-15.9,16.4s6.6,16.5,15.9,16.5,10.2-3,13.6-7.6l7.6,5.9c-4.4,7.1-11.9,11.8-21.4,11.8-15,0-26.9-11.6-26.9-26.5v-.2Z"/>
            <path class="cls-1" d="M300,1.1v9.6h-3.3c-8.1,0-14.9,4.6-14.9,14v27.1h-10.8V1.1h10.1v6.6c3.6-4.6,9-7.1,14.8-7.1s3,.2,4.1.5h0Z"/>
            <g>
              <path class="cls-1" d="M4.2,79.4c-.7,0-1.3-.2-1.9-.5-.5-.4-1-.8-1.3-1.5-.3-.6-.5-1.4-.5-2.3s.2-1.6.5-2.3c.3-.6.7-1.1,1.3-1.5.5-.4,1.2-.5,1.9-.5s1.3.2,1.9.5c.5.4,1,.8,1.3,1.5s.5,1.4.5,2.3-.2,1.6-.5,2.3c-.3.6-.7,1.1-1.3,1.5-.5.4-1.2.5-1.9.5ZM4.2,78.7c.5,0,1,0,1.5-.4.4-.3.8-.7,1-1.2s.4-1.2.4-1.9,0-1.4-.4-1.9-.6-.9-1-1.2-.9-.4-1.5-.4-1,0-1.5.4c-.4.3-.8.7-1,1.2-.3.5-.4,1.2-.4,1.9s.1,1.4.4,1.9c.2.5.6.9,1,1.2.4.3.9.4,1.5.4Z"/>
              <path class="cls-1" d="M23.8,70.9v8.3h-.7l-4.9-7h0v7h-.8v-8.3h.7l4.9,7h0v-7h.8Z"/>
              <path class="cls-1" d="M33.6,79.3v-8.3h.8v7.7h4v.7h-4.8Z"/>
              <path class="cls-1" d="M48.5,70.9v8.3h-.8v-8.3h.8Z"/>
              <path class="cls-1" d="M64.9,70.9v8.3h-.7l-4.9-7h0v7h-.8v-8.3h.7l4.9,7h0v-7s.8,0,.8,0Z"/>
              <path class="cls-1" d="M74.8,79.3v-8.3h4.8v.7h-4.1v3.1h3.8v.7h-3.8v3.2h4.2v.7h-4.9Z"/>
              <path class="cls-1" d="M100.1,79.3v-8.3h2.8c.5,0,1,0,1.4.3.4.2.6.4.8.8.2.3.3.7.3,1.1s0,.6-.2.9c0,.2-.3.4-.5.6s-.4.3-.7.3h0c.3,0,.5.2.8.3.2.2.5.4.6.7s.2.7.2,1.1,0,.8-.3,1.1c-.2.3-.5.6-.9.8-.4.2-.9.3-1.5.3h-3,.2ZM100.9,74.7h2.1c.3,0,.6,0,.9-.2.2,0,.4-.3.6-.6,0-.2.2-.5.2-.8s0-.8-.4-1.1c-.3-.3-.7-.4-1.3-.4h-2.1s0,3.1,0,3.1ZM100.9,78.6h2.2c.6,0,1.1,0,1.4-.4s.5-.6.5-1.1,0-.6-.2-.9-.4-.5-.6-.6-.6-.2-1-.2h-2.2v3.2h-.1Z"/>
              <path class="cls-1" d="M118.4,79.4c-.7,0-1.3-.2-1.9-.5-.5-.4-1-.8-1.3-1.5-.3-.6-.5-1.4-.5-2.3s.2-1.6.5-2.3.7-1.1,1.3-1.5c.5-.4,1.2-.5,1.9-.5s1.3.2,1.9.5c.5.4,1,.8,1.3,1.5s.5,1.4.5,2.3-.2,1.6-.5,2.3c-.3.6-.7,1.1-1.3,1.5-.5.4-1.2.5-1.9.5ZM118.4,78.7c.5,0,1,0,1.5-.4s.8-.7,1-1.2.4-1.2.4-1.9,0-1.4-.4-1.9-.6-.9-1-1.2c-.4-.3-.9-.4-1.5-.4s-1,0-1.5.4c-.4.3-.8.7-1,1.2-.3.5-.4,1.2-.4,1.9s0,1.4.4,1.9c.2.5.6.9,1,1.2.4.3.9.4,1.5.4Z"/>
              <path class="cls-1" d="M134.8,79.4c-.7,0-1.3-.2-1.9-.5-.5-.4-1-.8-1.3-1.5-.3-.6-.5-1.4-.5-2.3s.2-1.6.5-2.3.7-1.1,1.3-1.5c.5-.4,1.2-.5,1.9-.5s1.3.2,1.9.5c.5.4,1,.8,1.3,1.5s.5,1.4.5,2.3-.2,1.6-.5,2.3c-.3.6-.7,1.1-1.3,1.5-.5.4-1.2.5-1.9.5ZM134.8,78.7c.5,0,1,0,1.5-.4s.8-.7,1-1.2.4-1.2.4-1.9-.1-1.4-.4-1.9c-.3-.5-.6-.9-1-1.2s-.9-.4-1.5-.4-1,0-1.5.4c-.4.3-.8.7-1,1.2-.3.5-.4,1.2-.4,1.9s.1,1.4.4,1.9c.2.5.6.9,1,1.2.4.3.9.4,1.5.4Z"/>
              <path class="cls-1" d="M147.9,79.3v-8.3h.8v4.5h0l4.1-4.5h1l-3.6,3.9,3.5,4.5h-.9l-3.1-4-1.1,1.2v2.7h-.8.1Z"/>
              <path class="cls-1" d="M163.6,70.9v8.3h-.8v-8.3h.8Z"/>
              <path class="cls-1" d="M180,70.9v8.3h-.7l-4.9-7h0v7h-.8v-8.3h.7l4.9,7h0v-7h.8Z"/>
              <path class="cls-1" d="M193.2,79.4c-.7,0-1.4-.2-1.9-.5-.5-.4-1-.8-1.3-1.5-.3-.6-.5-1.4-.5-2.3s.2-1.6.5-2.3c.3-.6.7-1.1,1.3-1.5.5-.4,1.2-.5,1.9-.5s.9,0,1.3.2.7.3,1,.6c.3.3.5.5.7.9.2.3.3.7.4,1h-.8c0-.3-.2-.5-.3-.8-.1-.2-.3-.5-.5-.6-.2-.2-.5-.3-.7-.4-.3,0-.6-.2-.9-.2-.5,0-1,0-1.5.4-.4.3-.8.7-1,1.2-.3.5-.4,1.2-.4,1.9s.1,1.4.4,1.9c.2.5.6.9,1,1.2.4.3.9.4,1.5.4s1,0,1.4-.3c.4-.2.7-.6.9-1s.3-.9.3-1.5h.2-2.7v-.7h3.2v.7c0,.7-.1,1.3-.4,1.8-.3.5-.7.9-1.2,1.2-.5.3-1.1.4-1.7.4l-.2.3Z"/>
              <path class="cls-1" d="M219.4,79.4c-.6,0-1.1,0-1.5-.3s-.7-.4-1-.8c-.2-.3-.4-.7-.4-1.2h.8c0,.3.1.6.3.8.2.2.4.4.7.5s.6.2,1,.2.8,0,1.1-.2c.3,0,.6-.3.8-.6.2-.2.3-.5.3-.9s0-.5-.2-.7-.4-.4-.6-.5c-.3,0-.6-.2-.9-.3l-1-.3c-.7-.2-1.2-.5-1.5-.8-.4-.3-.5-.8-.5-1.3s.1-.8.4-1.2c.2-.3.6-.6,1-.8.4-.2.9-.3,1.4-.3s1,0,1.4.3c.4.2.7.5,1,.8.2.3.4.7.4,1.1h-.7c0-.5-.2-.8-.6-1.1-.4-.3-.8-.4-1.4-.4s-.7,0-1,.2c-.3,0-.5.3-.7.6-.2.2-.2.5-.2.8s0,.5.2.7.4.4.6.5c.3,0,.5.2.8.3l.9.3c.3,0,.5.2.8.3.3,0,.5.3.7.4.2.2.4.4.5.6s.2.5.2.9-.1.8-.3,1.2c-.2.4-.6.6-1,.8s-.9.3-1.6.3h-.2Z"/>
              <path class="cls-1" d="M231,70.9h.9l2.5,4h0l2.5-4h.9l-3,4.7v3.6h-.8v-3.6l-3-4.7h0Z"/>
              <path class="cls-1" d="M249.4,79.4c-.6,0-1.1,0-1.5-.3s-.7-.4-1-.8c-.2-.3-.4-.7-.4-1.2h.8c0,.3.1.6.3.8.2.2.4.4.7.5s.6.2,1,.2.8,0,1.1-.2c.3,0,.6-.3.8-.6.2-.2.3-.5.3-.9s0-.5-.2-.7-.4-.4-.6-.5c-.3,0-.6-.2-.9-.3l-1-.3c-.7-.2-1.2-.5-1.5-.8-.4-.3-.5-.8-.5-1.3s.1-.8.4-1.2c.2-.3.6-.6,1-.8.4-.2.9-.3,1.4-.3s1,0,1.4.3c.4.2.7.5,1,.8.2.3.4.7.4,1.1h-.7c0-.5-.2-.8-.6-1.1-.4-.3-.8-.4-1.4-.4s-.7,0-1,.2c-.3,0-.5.3-.7.6-.2.2-.2.5-.2.8s0,.5.2.7.4.4.6.5c.3,0,.5.2.8.3l.9.3c.3,0,.5.2.8.3.3,0,.5.3.7.4.2.2.4.4.5.6s.2.5.2.9-.1.8-.3,1.2c-.2.4-.6.6-1,.8s-.9.3-1.6.3h-.2Z"/>
              <path class="cls-1" d="M261.3,71.6v-.7h6v.7h-2.6v7.6h-.8v-7.6h-2.7.1Z"/>
              <path class="cls-1" d="M276.7,79.3v-8.3h4.8v.7h-4.1v3.1h3.8v.7h-3.8v3.2h4.2v.7h-4.9Z"/>
              <path class="cls-1" d="M291.2,70.9h.9l3,7.3h0l3-7.3h.9v8.3h-.7v-6.7h0l-2.8,6.7h-.7l-2.8-6.7h0v6.7h-.7v-8.3h0Z"/>
            </g>
            <path class="cls-1" d="M38,7.1c3.3,3.6,4.9,8.3,4.9,14.1v30.7h-10.5v-29.3c0-3.4-1-6.1-2.9-8.2-2-2.1-4.5-3.1-7.7-3.1s-5.9,1.1-8,3.2-3.1,4.9-3.1,8.2v29.3H0V2.8h9.8v4.9C13.5,3.7,18.4,1.7,24.5,1.7s10.2,1.8,13.5,5.3h0Z"/>
            <path class="cls-1" d="M158.2,24.2c0-6.5-2.1-11.8-6.4-16.1-4.3-4.3-9.7-6.4-16.2-6.4s-13.1,2.5-18,7.4c-.5-.7-1-1.4-1.6-2.1-3.2-3.6-7.7-5.3-13.3-5.3s-12.6,2.6-16.6,7.7c-3.1-5.1-8.1-7.7-14.9-7.7s-10.7,1.9-14.2,5.8V2.8h-9.8v49h10.5v-29.2c0-3.4,1-6.1,3-8.2s4.6-3.1,7.8-3.1,5.6,1,7.5,3.1,2.8,4.8,2.8,8.2v21.1h10.5v-21.6c0-3.1,1-5.7,3-7.8,2-2.1,4.6-3.1,7.8-3.1s5.6,1,7.4,3.1,2.7,4.8,2.7,8.3v4.7c0,7.3,2.5,13.3,7.5,18.2s11.3,7.3,18.9,7.3,14-2.6,19.6-7.9l-5-7.2c-4.4,3.9-9.2,5.8-14.3,5.8s-7.8-1.1-10.7-3.4c-2.9-2.3-4.6-5.4-5.3-9.5h36.6c.5-2.3.8-4.5.8-6.6v.2ZM121,22.6c.8-3.7,2.5-6.6,5-8.7,2.6-2.2,5.6-3.2,9-3.2s6.5,1.1,8.9,3.2c2.4,2.2,3.6,5.1,3.7,8.7h-26.7.1Z"/>
            <g>
              <path class="cls-1" d="M212.7,26.4c0-14.9,11.8-26.4,26.7-26.4s27,11.7,27,26.4-11.9,26.5-27,26.5-26.7-11.8-26.7-26.5ZM255.2,26.5c0-9.5-6.8-16.6-15.7-16.6s-15.8,7.1-15.8,16.6,6.7,16.4,15.7,16.4,15.8-7.1,15.8-16.4Z"/>
              <rect class="cls-1" x="255.6" y="25.7" width="10.8" height="26.2"/>
            </g>
          </g>
        </g>
      </g>
    </g>
  </g>
</svg>