<svg xmlns="http://www.w3.org/2000/svg" style="display: none;">
    <symbol id="svg-sc-tw" viewBox="0 0 24 24">
        <path d="M12.001 2.183c-5.757 0-10.425 4.668-10.425 10.425s4.667 10.424 10.425 10.424 10.424-4.666 10.424-10.424c0-5.756-4.667-10.425-10.424-10.425zm5.251 8.323c.006.113.008.226.008.34 0 3.472-2.642 7.474-7.474 7.474a7.439 7.439 0 0 1-4.027-1.18 5.275 5.275 0 0 0 3.89-1.088 2.632 2.632 0 0 1-2.454-1.825 2.586 2.586 0 0 0 1.186-.045 2.63 2.63 0 0 1-2.108-2.576v-.034c.354.197.759.315 1.19.329a2.627 2.627 0 0 1-.813-3.508 7.458 7.458 0 0 0 5.415 2.744 2.627 2.627 0 0 1 4.476-2.397 5.23 5.23 0 0 0 1.668-.638 2.63 2.63 0 0 1-1.156 1.453 5.23 5.23 0 0 0 1.509-.414 5.286 5.286 0 0 1-1.311 1.361z"/>
    </symbol>
    <symbol id="svg-sc-yt" viewBox="0 0 24 24">
        <path d="M7.549 13.484h.755v3.749h.729v-3.749h.754v-.638H7.549zm4.479-3.115a.333.333 0 0 0 .236-.08.298.298 0 0 0 .088-.226V8.12a.229.229 0 0 0-.089-.188.356.356 0 0 0-.234-.073.32.32 0 0 0-.217.073.237.237 0 0 0-.083.188v1.943c0 .097.026.173.078.226s.126.08.221.08zm1.608 3.588c-.101 0-.2.026-.298.077a.985.985 0 0 0-.277.226v-1.414h-.654v4.388h.654v-.248c.084.1.177.173.276.22s.212.07.339.07c.191 0 .339-.061.439-.183.102-.123.153-.298.153-.527v-1.797c0-.265-.054-.467-.163-.605-.108-.138-.264-.207-.469-.207zm-.035 2.52c0 .104-.019.178-.056.223s-.095.069-.174.069c-.055 0-.106-.012-.156-.035s-.102-.062-.153-.114v-2.017a.446.446 0 0 1 .133-.099.306.306 0 0 1 .137-.032c.087 0 .155.028.202.083.045.057.068.14.068.25v1.672zm-2.329-.02c-.061.069-.127.127-.2.173s-.134.068-.18.068c-.061 0-.105-.016-.133-.051-.026-.034-.041-.089-.041-.166v-2.484h-.646v2.707c0 .193.038.336.113.434.077.096.188.144.338.144.122 0 .247-.033.376-.102s.253-.169.373-.3v.355h.647v-3.237h-.647v2.46zM12 2.182c-5.757 0-10.425 4.667-10.425 10.425S6.242 23.032 12 23.032s10.425-4.666 10.425-10.425C22.425 6.85 17.757 2.182 12 2.182zm1.684 5.149h.728v2.734c0 .085.017.146.047.183s.08.058.148.058a.432.432 0 0 0 .203-.075c.081-.051.156-.115.224-.193V7.332h.729v3.566h-.729v-.394a1.517 1.517 0 0 1-.419.331.917.917 0 0 1-.422.114c-.168 0-.295-.054-.381-.16-.084-.105-.127-.264-.127-.478v-2.98zm-2.705.815c0-.275.097-.495.293-.661.197-.162.461-.245.791-.245.302 0 .548.087.742.259a.856.856 0 0 1 .288.668v1.842c0 .306-.094.545-.282.718-.19.173-.45.26-.781.26-.318 0-.574-.089-.765-.267-.191-.18-.287-.422-.287-.724V8.148zM8.995 6.063l.533 1.931h.052l.507-1.931h.834l-.954 2.829v2.005h-.82V8.981L8.17 6.063h.826zm9.541 10.174a2.337 2.337 0 0 1-2.336 2.337H8.082a2.337 2.337 0 0 1-2.337-2.337v-1.879a2.337 2.337 0 0 1 2.337-2.337H16.2a2.336 2.336 0 0 1 2.336 2.337v1.879zm-2.946-2.32c-.29 0-.525.088-.709.265a.91.91 0 0 0-.275.685v1.455c0 .312.084.557.251.734s.395.267.685.267c.323 0 .565-.083.726-.251.164-.168.244-.418.244-.751v-.166h-.665v.147c0 .191-.022.314-.064.37s-.117.083-.225.083c-.103 0-.176-.032-.219-.097-.042-.067-.063-.185-.063-.356v-.609h1.237v-.827c0-.306-.079-.541-.238-.705-.16-.163-.388-.245-.684-.245zm.256 1.273h-.572v-.327c0-.135.021-.234.066-.29.045-.061.119-.089.222-.089.097 0 .171.029.215.089.044.056.068.155.068.29v.327z"/>
    </symbol>
    <symbol id="svg-sc-fb" viewBox="0 0 24 24">
        <path d="M12 2.183c-5.757 0-10.425 4.668-10.425 10.425S6.242 23.032 12 23.032s10.425-4.666 10.425-10.424c0-5.756-4.668-10.425-10.425-10.425zm2.759 10.381h-1.805v6.438h-2.675v-6.438H9.006v-2.273h1.273V8.818c0-1.054.5-2.7 2.7-2.7l1.981.008v2.208h-1.438c-.235 0-.567.117-.567.618v1.339h2.04l-.235 2.272z"/>
    </symbol>
    <symbol id="svg-sc-in" viewBox="0 0 24 24">
        <path d="M12 2.182c-5.757 0-10.425 4.667-10.425 10.425S6.242 23.032 12 23.032c5.756 0 10.424-4.666 10.424-10.425C22.424 6.85 17.756 2.182 12 2.182zm5.806 15.488a.85.85 0 0 1-.86.839H7.032a.85.85 0 0 1-.86-.839V7.642a.85.85 0 0 1 .86-.839h9.913a.85.85 0 0 1 .86.839V17.67zm-3.794-6.477c-.932 0-1.35.512-1.583.872v.017h-.011a.1.1 0 0 0 .011-.017v-.748h-1.757c.023.495 0 5.285 0 5.285h1.757V13.65c0-.159.011-.315.058-.428.127-.315.417-.643.901-.643.637 0 .891.485.891 1.195v2.828h1.757v-3.03c0-1.624-.868-2.379-2.024-2.379zm-5.18-2.425c-.601 0-.994.395-.994.914 0 .507.381.914.971.914h.011c.613 0 .994-.407.994-.914-.011-.519-.381-.914-.982-.914zm-.889 2.549H9.7v5.285H7.943v-5.285z"/>
    </symbol>
    <symbol id="svg-sc-ins" viewBox="0 0 24 24">
        <path d="M16.303 10.326V8.405l-1.921.007.006 1.92zm-4.354 4.435c1.1 0 1.995-.894 1.995-1.994 0-.434-.141-.836-.378-1.163-.362-.502-.952-.832-1.617-.832s-1.254.33-1.617.832a1.976 1.976 0 0 0-.377 1.163c0 1.1.894 1.994 1.994 1.994zm.052-12.577c-5.757 0-10.425 4.666-10.425 10.424s4.667 10.425 10.425 10.425c5.756 0 10.424-4.667 10.424-10.425S17.757 2.184 12.001 2.184zm5.614 9.419v4.64a2.192 2.192 0 0 1-2.19 2.189H8.472a2.192 2.192 0 0 1-2.19-2.189V9.29c0-1.208.982-2.19 2.19-2.19h6.953c1.207 0 2.19.982 2.19 2.19v2.313zm-2.568 1.163c0 1.708-1.39 3.099-3.099 3.099a3.102 3.102 0 0 1-2.871-4.262H7.385v4.64c0 .599.487 1.085 1.085 1.085h6.953c.599 0 1.085-.487 1.085-1.085v-4.64h-1.692c.147.36.229.752.229 1.163z"/>
    </symbol>
    <symbol id="svg-sc-tt" viewBox="0 0 118.82 118.82" xmlns="http://www.w3.org/2000/svg">
        <path d="M0 59.41c0 32.81 26.6 59.41 59.41 59.41s59.41-26.6 59.41-59.41S92.22 0 59.41 0 0 26.6 0 59.41Z"/>
        <path d="M92.07 52.64V39.71C75.03 39 74.61 23.63 74.61 22.19s-13.09-.01-13.09-.01v50.28c0 5.71-4.66 10.34-10.37 10.34-5.71 0-10.35-4.64-10.35-10.35s4.68-10.34 10.4-10.34c1.02 0 2.01.15 3.05.45V49.22c-12.88-1.67-24.65 7.39-26.32 20.23-1.67 12.84 7.36 24.6 20.2 26.27 12.84 1.67 24.62-7.39 26.29-20.23.18-1.38.19-2.67.19-4V46.68c6.03 5.5 17.46 5.97 17.46 5.97Z" style="fill:currentColor"/>
    </symbol>
</svg>