<?xml version="1.0" encoding="UTF-8"?>
<svg xmlns="http://www.w3.org/2000/svg" viewBox="0 0 1024 1024" version="1.1">
  <defs>
    <linearGradient id="g" x1="47.1" y1="27.4" x2="158.2" y2="27.4" gradientUnits="userSpaceOnUse">
      <stop offset="0" stop-color="#01fbfd"/>
      <stop offset="1" stop-color="#bd41ff"/>
    </linearGradient>
  </defs>
  <rect x="0" y="0" width="1024" height="1024" rx="220" ry="220" fill="#231f20"/>
  <g transform="translate(184, 408) scale(4.1478)">
    <path fill="#ffffff" d="M38,7.1c3.3,3.6,4.9,8.3,4.9,14.1v30.7h-10.5v-29.3c0-3.4-1-6.1-2.9-8.2-2-2.1-4.5-3.1-7.7-3.1s-5.9,1.1-8,3.2c-2.1,2.1-3.1,4.9-3.1,8.2v29.3H0V2.8h9.8v4.9c3.7-4,8.6-6,14.7-6s10.2,1.8,13.5,5.3Z"/>
    <path fill="url(#g)" d="M158.2,24.2c0-6.5-2.1-11.8-6.4-16.1-4.3-4.3-9.7-6.4-16.2-6.4s-13.1,2.5-18,7.4c-.5-.7-1-1.4-1.6-2.1-3.2-3.6-7.7-5.3-13.3-5.3s-12.6,2.6-16.6,7.7c-3.1-5.1-8.1-7.7-14.9-7.7s-10.7,1.9-14.2,5.8V2.8h-9.8v49h10.5v-29.2c0-3.4,1-6.1,3-8.2,2-2.1,4.6-3.1,7.8-3.1s5.6,1,7.5,3.1c1.9,2.1,2.8,4.8,2.8,8.2v21.1h10.5v-21.6c0-3.1,1-5.7,3-7.8,2-2.1,4.6-3.1,7.8-3.1s5.6,1,7.4,3.1c1.8,2.1,2.7,4.8,2.7,8.3v4.4c0,.1,0,.2,0,.3,0,7.3,2.5,13.3,7.5,18.2,5,4.9,11.3,7.3,18.9,7.3s14-2.6,19.6-7.9l-5-7.2c-4.4,3.9-9.2,5.8-14.3,5.8s-7.8-1.1-10.7-3.4c-2.9-2.3-4.6-5.4-5.3-9.5h36.6c.5-2.3.8-4.5.8-6.6ZM121,22.6c.8-3.7,2.5-6.6,5-8.7,2.6-2.2,5.6-3.2,9-3.2s6.5,1.1,8.9,3.2c2.4,2.2,3.6,5.1,3.7,8.7h-26.7Z"/>
  </g>
</svg>
